<svg xmlns="http://www.w3.org/2000/svg" viewBox="0 0 1200 760" role="img" aria-labelledby="title desc">
  <title id="title">SEO and local visibility dashboard</title>
  <desc id="desc">A local SEO dashboard showing Google Business Profile, service pages, Search Console, reviews, speed and enquiry tracking.</desc>
  <defs>
    <linearGradient id="bg" x1="0" x2="1" y1="0" y2="1">
      <stop offset="0" stop-color="#f8fbff"/>
      <stop offset="1" stop-color="#eef5ff"/>
    </linearGradient>
  </defs>
  <rect width="1200" height="760" rx="34" fill="url(#bg)"/>
  <rect x="54" y="54" width="1092" height="652" rx="30" fill="#ffffff" stroke="#dbe5f2"/>
  <rect x="54" y="54" width="1092" height="78" rx="30" fill="#0f274a"/>
  <text x="92" y="104" fill="#ffffff" font-family="Arial, sans-serif" font-size="28" font-weight="700">SEO &amp; Local Business Visibility</text>
  <text x="858" y="102" fill="#cfe3ff" font-family="Arial, sans-serif" font-size="17">Findable, measurable, trusted</text>
  <g font-family="Arial, sans-serif">
    <g transform="translate(92 170)">
      <rect width="296" height="204" rx="24" fill="#f8fafc" stroke="#dbe5f2"/>
      <text x="28" y="44" fill="#003087" font-size="20" font-weight="700">Google Business Profile</text>
      <text x="28" y="82" fill="#334155" font-size="16">Hours, services, photos, reviews</text>
      <rect x="28" y="116" width="214" height="14" rx="7" fill="#e2e8f0"/>
      <rect x="28" y="116" width="176" height="14" rx="7" fill="#4285f4"/>
      <text x="28" y="166" fill="#16a34a" font-size="28" font-weight="700">Ready</text>
    </g>
    <g transform="translate(438 170)">
      <rect width="296" height="204" rx="24" fill="#f8fafc" stroke="#dbe5f2"/>
      <text x="28" y="44" fill="#003087" font-size="20" font-weight="700">Service Pages</text>
      <text x="28" y="82" fill="#334155" font-size="16">Clear pages for each offer</text>
      <rect x="28" y="112" width="76" height="54" rx="14" fill="#eaf3ff"/>
      <rect x="120" y="112" width="76" height="54" rx="14" fill="#f0fdf4"/>
      <rect x="212" y="112" width="56" height="54" rx="14" fill="#fff7ed"/>
    </g>
    <g transform="translate(784 170)">
      <rect width="296" height="204" rx="24" fill="#f8fafc" stroke="#dbe5f2"/>
      <text x="28" y="44" fill="#003087" font-size="20" font-weight="700">Search Console</text>
      <text x="28" y="82" fill="#334155" font-size="16">Clicks, queries and indexing</text>
      <polyline points="28,154 72,132 116,142 160,104 204,118 252,86" fill="none" stroke="#22c55e" stroke-width="8" stroke-linecap="round" stroke-linejoin="round"/>
    </g>
    <g transform="translate(92 420)">
      <rect width="226" height="152" rx="22" fill="#eef6ff" stroke="#bfdbfe"/>
      <text x="24" y="44" fill="#174ea6" font-size="19" font-weight="700">Reviews</text>
      <text x="24" y="88" fill="#0f172a" font-size="38" font-weight="700">4.8</text>
      <text x="104" y="88" fill="#f59e0b" font-size="28">★★★★★</text>
    </g>
    <g transform="translate(348 420)">
      <rect width="226" height="152" rx="22" fill="#f0fdf4" stroke="#bbf7d0"/>
      <text x="24" y="44" fill="#166534" font-size="19" font-weight="700">Website Speed</text>
      <circle cx="72" cy="94" r="34" fill="none" stroke="#dbe5f2" stroke-width="11"/>
      <path d="M72 60a34 34 0 1 1-31 48" fill="none" stroke="#22c55e" stroke-width="11" stroke-linecap="round"/>
      <text x="128" y="104" fill="#0f172a" font-size="30" font-weight="700">Good</text>
    </g>
    <g transform="translate(604 420)">
      <rect width="226" height="152" rx="22" fill="#fff7ed" stroke="#fed7aa"/>
      <text x="24" y="44" fill="#9a3412" font-size="19" font-weight="700">Lead Tracking</text>
      <text x="24" y="88" fill="#0f172a" font-size="38" font-weight="700">42</text>
      <text x="88" y="88" fill="#475569" font-size="17">enquiries</text>
    </g>
    <g transform="translate(860 420)">
      <rect width="220" height="152" rx="22" fill="#f5f3ff" stroke="#ddd6fe"/>
      <text x="24" y="44" fill="#6d28d9" font-size="19" font-weight="700">Content Plan</text>
      <text x="24" y="82" fill="#334155" font-size="16">Services</text>
      <text x="24" y="112" fill="#334155" font-size="16">Locations</text>
      <text x="24" y="142" fill="#334155" font-size="16">Questions</text>
    </g>
  </g>
  <rect x="92" y="616" width="988" height="48" rx="16" fill="#0f274a"/>
  <text x="124" y="647" fill="#cfe3ff" font-family="Arial, sans-serif" font-size="17">Axon connects SEO basics to real business enquiries, not just traffic numbers.</text>
</svg>
