<svg xmlns="http://www.w3.org/2000/svg" viewBox="0 0 1200 760" role="img" aria-labelledby="title desc">
  <title id="title">Technology strategy roadmap dashboard</title>
  <desc id="desc">A practical IT and AI roadmap showing priorities, budget, risk and implementation phases.</desc>
  <defs>
    <linearGradient id="bg" x1="0" x2="1" y1="0" y2="1">
      <stop offset="0" stop-color="#f8fbff"/>
      <stop offset="1" stop-color="#eef4ff"/>
    </linearGradient>
    <filter id="shadow" x="-20%" y="-20%" width="140%" height="140%">
      <feDropShadow dx="0" dy="18" stdDeviation="18" flood-color="#0f172a" flood-opacity=".14"/>
    </filter>
  </defs>
  <rect width="1200" height="760" rx="34" fill="url(#bg)"/>
  <rect x="54" y="54" width="1092" height="652" rx="28" fill="#ffffff" filter="url(#shadow)"/>
  <rect x="54" y="54" width="1092" height="74" rx="28" fill="#0f274a"/>
  <text x="92" y="101" fill="#ffffff" font-family="Arial, sans-serif" font-size="26" font-weight="700">Technology Strategy &amp; AI Roadmap</text>
  <text x="884" y="101" fill="#b8d4ff" font-family="Arial, sans-serif" font-size="17">Plain business priorities</text>
  <g transform="translate(92 164)">
    <rect width="244" height="142" rx="20" fill="#f8fafc" stroke="#dbe5f2"/>
    <text x="24" y="42" fill="#003087" font-family="Arial, sans-serif" font-size="18" font-weight="700">Current State</text>
    <text x="24" y="78" fill="#334155" font-family="Arial, sans-serif" font-size="16">Websites, email, hosting</text>
    <text x="24" y="106" fill="#334155" font-family="Arial, sans-serif" font-size="16">CRM and manual work</text>
    <circle cx="204" cy="44" r="18" fill="#e6f0ff"/>
    <text x="197" y="51" fill="#003087" font-family="Arial, sans-serif" font-size="20" font-weight="700">1</text>
  </g>
  <g transform="translate(372 164)">
    <rect width="244" height="142" rx="20" fill="#f8fafc" stroke="#dbe5f2"/>
    <text x="24" y="42" fill="#003087" font-family="Arial, sans-serif" font-size="18" font-weight="700">Stabilize Basics</text>
    <text x="24" y="78" fill="#334155" font-family="Arial, sans-serif" font-size="16">Security, backups, DNS</text>
    <text x="24" y="106" fill="#334155" font-family="Arial, sans-serif" font-size="16">User access and reports</text>
    <circle cx="204" cy="44" r="18" fill="#e6f0ff"/>
    <text x="197" y="51" fill="#003087" font-family="Arial, sans-serif" font-size="20" font-weight="700">2</text>
  </g>
  <g transform="translate(652 164)">
    <rect width="244" height="142" rx="20" fill="#f8fafc" stroke="#dbe5f2"/>
    <text x="24" y="42" fill="#003087" font-family="Arial, sans-serif" font-size="18" font-weight="700">Automate Work</text>
    <text x="24" y="78" fill="#334155" font-family="Arial, sans-serif" font-size="16">Lead follow-up and forms</text>
    <text x="24" y="106" fill="#334155" font-family="Arial, sans-serif" font-size="16">AI assistant pilots</text>
    <circle cx="204" cy="44" r="18" fill="#e6f0ff"/>
    <text x="197" y="51" fill="#003087" font-family="Arial, sans-serif" font-size="20" font-weight="700">3</text>
  </g>
  <g transform="translate(932 164)">
    <rect width="174" height="142" rx="20" fill="#f8fafc" stroke="#dbe5f2"/>
    <text x="22" y="42" fill="#003087" font-family="Arial, sans-serif" font-size="18" font-weight="700">Scale</text>
    <text x="22" y="78" fill="#334155" font-family="Arial, sans-serif" font-size="16">Dashboards</text>
    <text x="22" y="106" fill="#334155" font-family="Arial, sans-serif" font-size="16">Staff training</text>
  </g>
  <path d="M336 235h36M616 235h36M896 235h36" stroke="#003087" stroke-width="4" stroke-linecap="round"/>
  <g transform="translate(92 354)">
    <text x="0" y="0" fill="#0f172a" font-family="Arial, sans-serif" font-size="22" font-weight="700">Priority Matrix</text>
    <rect y="26" width="476" height="232" rx="20" fill="#f8fafc" stroke="#dbe5f2"/>
    <line x1="54" y1="198" x2="430" y2="198" stroke="#cbd5e1"/>
    <line x1="54" y1="62" x2="54" y2="198" stroke="#cbd5e1"/>
    <text x="72" y="88" fill="#475569" font-family="Arial, sans-serif" font-size="14">High value</text>
    <text x="328" y="218" fill="#475569" font-family="Arial, sans-serif" font-size="14">Low effort</text>
    <circle cx="158" cy="118" r="22" fill="#22c55e"/>
    <circle cx="270" cy="106" r="18" fill="#3b82f6"/>
    <circle cx="342" cy="154" r="16" fill="#f97316"/>
    <circle cx="218" cy="170" r="13" fill="#a855f7"/>
  </g>
  <g transform="translate(624 354)">
    <text x="0" y="0" fill="#0f172a" font-family="Arial, sans-serif" font-size="22" font-weight="700">Recommended Next Steps</text>
    <rect y="26" width="482" height="232" rx="20" fill="#f8fafc" stroke="#dbe5f2"/>
    <g font-family="Arial, sans-serif" font-size="17" fill="#334155">
      <circle cx="34" cy="70" r="8" fill="#003087"/><text x="54" y="76">Clean up domains, email and access</text>
      <circle cx="34" cy="118" r="8" fill="#003087"/><text x="54" y="124">Measure website leads and conversions</text>
      <circle cx="34" cy="166" r="8" fill="#003087"/><text x="54" y="172">Choose AI tools by business problem</text>
      <circle cx="34" cy="214" r="8" fill="#003087"/><text x="54" y="220">Train staff with simple usage rules</text>
    </g>
  </g>
</svg>
