<svg xmlns="http://www.w3.org/2000/svg" width="648" height="469" fill="none"><g clip-path="url(#a)"><path stroke="#8DD8FF" stroke-width="4.103" d="M71.726 98.106h504.887v322.521H71.726z"/><path stroke="#8DD8FF" stroke-width="4.103" d="M71.726 130.909h504.887v289.718H71.726zM51.714 78.095h20.012v20.012H51.714zm524.898 0h20.012v20.012h-20.012zM51.714 420.628h20.012v20.012H51.714zm524.898 0h20.012v20.012h-20.012z"/><g filter="url(#b)"><path fill="#8DD8FF" fill-opacity=".3" fill-rule="evenodd" d="M403.675 144.833c40.618 3.528 92.769-.924 110.608 34.852 17.161 34.416-7.017 86.636-30.271 126.262-20.614 35.127-55.439 58.948-89.711 78.198-26.946 15.134-55.542 18.338-83.459 19.066-22.192.58-38.121-16.062-60.342-15.312-37.039 1.251-49.677 25.888-63.016-7.531-14.542-36.432-27.132-53.226-27.516-95.498-.428-47.087-23.952-41.949-21.96-89.522 1.725-41.218 43.855-94.956 83.412-101.982 45.207-8.028 58.694 58.019 99.404 69.515 25.364 7.162 55.818-20.396 82.851-18.048" clip-rule="evenodd"/></g><circle cx="522.493" cy="114.366" r="4.688" fill="#8DD8FF"/><circle cx="541.495" cy="114.366" r="4.688" fill="#8DD8FF"/><circle cx="560.503" cy="114.366" r="4.688" fill="#8DD8FF"/><path stroke="#8DD8FF" stroke-opacity=".8" stroke-width="4.103" d="M110.739 68.686h428.707v27.609H110.739z"/><path stroke="#8DD8FF" stroke-opacity=".6" stroke-width="4.103" d="M148.751 41.1h352.683v27.609H148.751z"/><path stroke="#8DD8FF" stroke-opacity=".8" stroke-width="4.103" d="M96.462 54.923h13.785v13.785H96.462zm462.471 0h-13.785v13.785h13.785z"/><path stroke="#8DD8FF" stroke-opacity=".6" stroke-width="4.103" d="M141.442 31.212h10.519v10.519h-10.519zm369.37 0h-10.519v10.52h10.519z"/><g filter="url(#c)"><path fill="#fff" d="M402.631 241.428v68.684c0 8.252-6.715 14.967-14.97 14.967H360.61c-4.539 0-8.78-2.025-11.636-5.554l-11.506-14.232a4.65 4.65 0 0 1-.034-5.84l4.158-5.264a4.65 4.65 0 0 1 3.672-1.779c1.442 0 2.764.642 3.658 1.763l11.092 13.944a2.8 2.8 0 0 0 2.196 1.058h20.768a3.753 3.753 0 0 0 3.747-3.747v-59.316a3.75 3.75 0 0 0-3.747-3.747h-20.787c-.859 0-1.658.384-2.195 1.056l-60.621 76.021a14.9 14.9 0 0 1-11.704 5.637h-26.999c-8.252 0-14.967-6.715-14.967-14.967v-68.684c0-8.254 6.715-14.969 14.967-14.969h27.195c4.613 0 8.897 2.079 11.755 5.705l11.035 14.085a4.66 4.66 0 0 1-.007 5.799l-4.187 5.291a4.65 4.65 0 0 1-3.667 1.775 4.64 4.64 0 0 1-3.658-1.763l-11.063-13.93a2.79 2.79 0 0 0-2.193-1.056h-20.526a3.75 3.75 0 0 0-3.747 3.747v59.316a3.753 3.753 0 0 0 3.747 3.747h20.517c.859 0 1.658-.386 2.193-1.056l60.65-76.026a14.9 14.9 0 0 1 11.702-5.634h27.243c8.255 0 14.97 6.715 14.97 14.969"/></g></g><defs><filter id="b" width="628.394" height="556.735" x="14.789" y="-30.408" color-interpolation-filters="sRGB" filterUnits="userSpaceOnUse"><feFlood flood-opacity="0" result="BackgroundImageFix"/><feBlend in="SourceGraphic" in2="BackgroundImageFix" result="shape"/><feGaussianBlur result="effect1_foregroundBlur_38_8917" stdDeviation="61.55"/></filter><filter id="c" width="196.926" height="138.62" x="227.789" y="209.238" color-interpolation-filters="sRGB" filterUnits="userSpaceOnUse"><feFlood flood-opacity="0" result="BackgroundImageFix"/><feColorMatrix in="SourceAlpha" result="hardAlpha" values="0 0 0 0 0 0 0 0 0 0 0 0 0 0 0 0 0 0 127 0"/><feOffset dx="2.084" dy="2.779"/><feGaussianBlur stdDeviation="10"/><feColorMatrix values="0 0 0 0 0 0 0 0 0 0 0 0 0 0 0 0 0 0 0.4 0"/><feBlend in2="BackgroundImageFix" result="effect1_dropShadow_38_8917"/><feBlend in="SourceGraphic" in2="effect1_dropShadow_38_8917" result="shape"/></filter><clipPath id="a"><path fill="#fff" d="M0 0h648v469H0z"/></clipPath></defs></svg>